<svg height="186.25277161862527" viewBox="0 0 400 186.25277161862527" width="400" xmlns="http://www.w3.org/2000/svg"><path d="M291.031 11.248 C 273.209 19.580,263.415 29.793,263.415 40.044 C 263.415 42.393,263.316 42.436,258.758 42.087 C 233.563 40.154,205.126 41.909,200.060 45.709 C 199.043 46.473,198.142 48.527,197.843 50.770 L 197.339 54.545 188.470 54.806 C 183.592 54.949,174.612 54.449,168.514 53.695 C 128.885 48.794,116.798 49.175,98.181 55.912 C 88.725 59.334,86.899 61.307,89.153 65.666 C 91.141 69.510,90.775 69.736,77.054 73.122 C 38.402 82.660,10.269 94.087,5.276 102.276 C 0.564 110.004,4.879 112.617,28.168 116.143 C 43.912 118.526,47.007 120.267,47.007 126.740 C 47.007 130.265,43.017 134.778,36.797 138.288 C 27.267 143.666,27.320 148.422,36.984 155.081 C 39.814 157.031,45.234 161.448,49.029 164.897 C 60.287 175.125,60.441 175.176,80.266 175.112 C 112.170 175.008,133.366 174.028,137.579 172.462 C 150.376 167.705,154.923 167.782,160.766 172.856 C 165.381 176.865,167.219 177.461,176.311 177.899 C 181.047 178.128,190.909 178.604,198.226 178.958 C 217.318 179.881,221.804 179.328,230.725 174.950 C 234.802 172.950,239.110 171.032,240.298 170.689 C 241.486 170.345,245.372 167.421,248.934 164.190 C 266.197 148.529,265.925 148.665,280.710 148.371 C 299.072 148.006,312.781 142.387,324.487 130.428 C 330.098 124.696,348.290 117.431,367.789 113.135 C 387.489 108.796,396.378 101.390,396.433 89.269 C 396.481 78.737,391.410 74.755,369.623 68.213 C 359.755 65.250,358.183 63.883,361.488 61.140 C 365.384 57.907,368.202 49.260,368.175 40.623 C 368.138 29.069,362.981 22.440,347.602 14.180 C 332.474 6.055,332.055 5.937,317.073 5.595 L 303.769 5.292 291.031 11.248 M306.874 7.982 C 306.874 10.007,313.516 10.672,314.169 8.712 C 314.364 8.128,315.002 7.968,315.616 8.348 C 317.933 9.779,314.789 11.530,309.900 11.530 C 304.823 11.530,302.197 9.466,304.432 7.231 C 305.956 5.707,306.874 5.990,306.874 7.982 M326.681 8.020 C 365.917 17.831,379.306 45.304,353.868 63.805 L 347.746 68.259 346.823 64.950 C 345.569 60.459,343.836 36.907,344.735 36.590 C 356.869 32.311,348.660 20.469,334.273 21.499 C 322.955 22.309,321.323 29.489,331.374 34.258 C 337.697 37.259,339.390 45.766,337.247 63.770 C 335.886 75.207,336.260 74.954,320.810 74.903 C 307.171 74.857,298.335 73.637,289.198 70.536 C 281.133 67.799,267.760 69.173,269.251 72.586 C 272.453 79.920,260.939 93.749,249.276 96.575 C 247.540 96.995,241.669 98.422,236.229 99.745 C 220.832 103.491,217.562 99.520,225.690 86.948 C 229.178 81.554,229.615 78.110,227.467 72.967 C 225.734 68.821,226.309 67.406,229.728 67.406 C 239.947 67.406,243.901 80.783,236.339 89.770 C 235.133 91.203,234.146 92.819,234.146 93.360 C 234.146 95.231,239.704 89.124,241.378 85.413 C 242.989 81.841,243.357 81.600,250.532 79.411 C 254.644 78.157,258.292 76.671,258.639 76.109 C 259.077 75.400,258.751 75.290,257.573 75.751 C 246.958 79.906,242.666 79.603,241.164 74.592 C 239.497 69.026,235.826 66.075,230.572 66.075 C 224.448 66.075,222.881 67.747,224.769 72.266 C 227.067 77.766,226.556 81.395,222.608 87.619 C 214.936 99.713,221.620 107.272,236.387 103.202 C 239.301 102.399,243.784 101.288,246.350 100.733 C 255.235 98.810,272.004 84.053,272.901 77.368 C 273.674 71.601,281.091 70.926,292.394 75.593 C 303.934 80.357,334.401 80.298,336.966 75.506 C 338.456 72.721,340.583 48.718,339.689 44.763 C 338.057 37.543,336.514 35.141,332.010 32.816 C 323.643 28.495,325.956 22.920,336.156 22.824 C 346.334 22.728,353.159 32.543,343.838 33.872 C 342.500 34.063,341.971 34.692,342.115 35.921 C 342.229 36.896,342.931 43.082,343.673 49.667 C 346.626 75.844,346.175 75.160,355.789 68.053 L 358.141 66.314 367.762 69.532 C 384.399 75.095,392.309 80.788,393.487 88.045 C 395.387 99.755,387.336 106.949,368.071 110.754 C 344.696 115.371,329.318 122.037,318.799 132.111 C 307.603 142.834,300.247 145.521,281.304 145.807 C 268.510 146.000,261.815 148.209,258.064 153.478 C 257.049 154.903,254.017 157.531,251.327 159.316 C 248.637 161.102,245.811 163.516,245.048 164.681 C 243.620 166.860,233.903 171.790,225.263 174.718 C 220.174 176.442,199.008 177.301,179.034 176.594 C 170.037 176.275,170.734 176.521,159.963 169.862 C 154.189 166.292,145.651 165.675,139.378 168.373 C 134.023 170.677,124.814 171.710,98.448 172.967 C 64.881 174.567,63.741 174.278,45.652 159.592 C 31.004 147.701,30.093 145.074,39.053 140.562 C 55.598 132.230,52.279 114.418,34.180 114.410 C 28.966 114.408,15.670 111.361,9.347 108.719 C 1.581 105.474,7.898 99.422,28.381 90.482 C 37.639 86.441,64.540 78.309,75.495 76.239 C 91.593 73.198,95.433 70.795,91.824 66.023 C 89.749 63.280,90.199 62.415,94.678 60.529 C 113.222 52.723,129.069 50.760,150.333 53.635 C 192.222 59.297,199.366 58.985,200.443 51.441 C 200.846 48.626,201.299 48.200,205.322 46.864 C 214.443 43.834,261.968 43.951,263.411 47.007 C 263.757 47.738,264.984 50.225,266.139 52.533 C 268.890 58.034,267.791 59.402,262.738 56.769 C 254.209 52.323,239.653 52.556,230.866 57.279 C 226.537 59.606,223.556 59.749,215.016 58.040 C 208.870 56.810,199.750 61.383,198.467 66.338 C 197.588 69.737,183.348 77.080,166.421 82.864 C 161.441 84.565,154.387 87.310,150.746 88.963 C 147.104 90.616,140.228 93.261,135.467 94.841 C 126.354 97.865,125.055 98.968,125.055 103.680 C 125.055 106.996,122.905 108.319,118.642 107.627 L 115.527 107.122 114.913 99.548 C 114.011 88.435,118.689 84.962,120.159 95.652 C 120.882 100.908,122.364 103.665,122.376 99.778 C 122.390 95.662,120.698 90.543,118.647 88.492 L 116.788 86.633 115.157 88.648 C 113.831 90.285,113.525 92.227,113.525 99.012 C 113.525 108.210,114.141 109.091,120.563 109.091 C 122.870 109.091,123.085 109.395,123.522 113.269 C 124.497 121.920,129.776 122.556,149.002 116.338 C 162.118 112.097,173.648 108.972,185.759 106.376 C 194.383 104.527,204.931 101.150,213.344 97.544 C 221.170 94.189,216.765 94.882,204.405 98.949 C 197.640 101.175,186.698 104.192,180.088 105.655 C 173.479 107.117,162.217 110.303,155.061 112.735 C 129.530 121.413,124.102 120.498,125.468 107.743 C 126.532 97.807,130.155 96.976,131.066 106.460 C 131.522 111.199,132.517 112.173,133.382 108.726 C 134.001 106.259,137.450 104.823,160.089 97.608 C 183.233 90.232,185.570 88.262,164.952 93.509 C 153.189 96.502,147.650 98.258,138.735 101.822 C 133.914 103.749,132.730 103.530,131.796 100.535 C 131.271 98.852,131.798 98.424,136.333 96.841 C 139.155 95.856,146.452 92.865,152.550 90.195 C 158.647 87.526,167.029 84.135,171.175 82.660 C 181.449 79.007,194.899 72.633,200.575 68.729 C 204.116 66.293,205.820 65.635,207.513 66.049 C 217.745 68.554,221.982 68.224,222.463 64.886 C 222.825 62.374,224.347 61.800,236.898 59.441 C 251.167 56.759,253.932 55.795,245.752 56.353 C 242.135 56.600,238.144 57.018,236.883 57.282 C 234.739 57.730,234.705 57.688,236.364 56.638 C 241.952 53.098,263.415 55.688,262.683 59.814 C 262.497 60.862,262.812 61.284,263.570 61.003 C 264.216 60.764,266.840 59.880,269.401 59.038 C 274.876 57.238,274.863 57.290,271.266 51.504 C 263.171 38.480,269.348 25.767,289.028 14.951 L 298.023 10.007 302.155 12.099 C 309.026 15.577,316.924 14.331,317.208 9.725 C 317.417 6.321,317.457 6.208,318.478 6.208 C 319.006 6.208,322.698 7.023,326.681 8.020 M303.104 22.858 C 306.048 25.819,306.466 26.002,306.738 24.444 C 307.093 22.419,303.978 19.512,301.454 19.512 C 300.103 19.512,300.422 20.160,303.104 22.858 M333.671 25.886 C 331.917 27.640,334.966 30.155,338.845 30.155 C 342.448 30.155,344.057 28.220,342.257 26.052 C 341.017 24.558,335.113 24.444,333.671 25.886 M219.437 62.246 C 221.595 65.326,219.963 66.292,214.003 65.461 C 206.987 64.484,207.449 64.494,204.094 65.237 C 201.800 65.745,201.184 65.627,201.481 64.738 C 202.898 60.486,216.848 58.550,219.437 62.246" fill="#000000"/></svg>